<svg width="76" height="65" viewBox="0 0 76 65" fill="none" xmlns="http://www.w3.org/2000/svg">
<mask id="path-1-inside-1_201_3" fill="white">
<path d="M37.91 0L75.1491 64.5H0.670914L37.91 0Z"/>
</mask>
<path d="M37.91 0L75.1491 64.5H0.670914L37.91 0Z" fill="#C4C4C4"/>
<path d="M37.91 0L41.8071 -2.25L37.91 -9L34.0129 -2.25L37.91 0ZM75.1491 64.5V69H82.9433L79.0462 62.25L75.1491 64.5ZM0.670914 64.5L-3.2262 62.25L-7.12332 69H0.670914V64.5ZM34.0129 2.25L71.252 66.75L79.0462 62.25L41.8071 -2.25L34.0129 2.25ZM75.1491 60H0.670914V69H75.1491V60ZM4.56803 66.75L41.8071 2.25L34.0129 -2.25L-3.2262 62.25L4.56803 66.75Z" fill="#FFF500" mask="url(#path-1-inside-1_201_3)"/>
<path d="M38 0L40.5981 4.5H35.402L38 0Z" fill="#C4C4C4"/>
<path d="M38 9L35.402 4.5L40.5981 4.5L38 9Z" fill="#C4C4C4"/>
<path d="M75.16 64.5059L72.559 60.0039L69.9511 64.502L75.16 64.5059Z" fill="#C4C4C4"/>
<path d="M67.35 60L69.9511 64.502L72.559 60.0039L67.35 60Z" fill="#C4C4C4"/>
<path d="M8.47 60L5.86896 64.502L3.26105 60.0039L8.47 60Z" fill="#C4C4C4"/>
<path d="M0.660004 64.5059L3.26105 60.0039L5.86896 64.502L0.660004 64.5059Z" fill="#C4C4C4"/>
</svg>
